<svg id="Слой_1" data-name="Слой 1" xmlns="http://www.w3.org/2000/svg" xmlns:xlink="http://www.w3.org/1999/xlink" viewBox="0 0 4535.43 2551.18"><defs><style>.cls-1{fill:url(#Безымянный_градиент_64);}.cls-2{font-size:668px;fill:#fff;stroke:#fff;stroke-miterlimit:10;stroke-width:14px;font-family:CenturyGothic-Bold, Century Gothic;font-weight:700;letter-spacing:0.03em;}.cls-3{opacity:0.49;}</style><linearGradient id="Безымянный_градиент_64" x1="354.25" y1="1232.83" x2="1082.29" y2="1232.83" gradientUnits="userSpaceOnUse"><stop offset="0" stop-color="blue"/><stop offset="0.18" stop-color="#0030ff"/><stop offset="0.75" stop-color="#00c4ff"/><stop offset="1" stop-color="aqua"/></linearGradient></defs><title>passgen done logo</title><path class="cls-1" d="M1070.82,1141.83a363.91,363.91,0,0,0-593.33-182H718.27a272,272,0,0,1,182,69.54,266.72,266.72,0,0,1,21.47,21.46,272.72,272.72,0,0,1,0,364,268.49,268.49,0,0,1-21.47,21.47,273.31,273.31,0,0,1-273,54q-5.78-2-11.42-4.33a272.73,272.73,0,0,1-79.58-49.66,268.49,268.49,0,0,1-21.47-21.47,273.37,273.37,0,0,1-54-273h99.82a182.09,182.09,0,1,0,157.65-91H403c-1.11,1.9-2.19,3.8-3.25,5.73a361.53,361.53,0,0,0-34,85.28l-.18.69a366.89,366.89,0,0,0,0,180.63l.18.69a361.53,361.53,0,0,0,34,85.28q1.59,2.88,3.24,5.72a364.77,364.77,0,0,0,42.31,58.77q5.57,6.32,11.43,12.36,10,10.35,20.8,19.88a364.73,364.73,0,0,0,331.79,79.53,364.64,364.64,0,0,0,182-111.77,364.69,364.69,0,0,0,79.54-331.78Zm-363.84.69c-.06-.23,11.29-.69,11.29-.69a91,91,0,1,1,0,182s-11.35-.46-11.29-.69a91,91,0,0,1,0-180.63Z"/><text class="cls-2" transform="translate(1257.93 1463.53)">PassGen</text><path class="cls-3" d="M1082.29,1232.7a363.2,363.2,0,0,1-91.17,240.88A365.86,365.86,0,0,1,900,1548.12a362.31,362.31,0,0,1-91.15,37.26,364.36,364.36,0,0,1-332.31-79.57q-10.81-9.52-20.84-19.87c-1.75-1.81-3.5-3.63-5.21-5.48,23.89-15.72,48.77-33.75,74.14-54.34,22.42-18.22,45.21-38.45,68-60.92,20.71-20.38,41.44-42.6,61.93-66.82a1076.53,1076.53,0,0,0,104.22-147q22.46-37.87,43.37-80.12,19.55-39.57,37.38-83.19,16.74-41,31.71-85.79Q886,909.17,900,917.25a366,366,0,0,1,133.51,133.36,361.3,361.3,0,0,1,37.31,91A365.21,365.21,0,0,1,1082.29,1232.7Z"/></svg>